<?xml version="1.0" standalone="no"?>
<!DOCTYPE svg PUBLIC "-//W3C//DTD SVG 20010904//EN"
 "http://www.w3.org/TR/2001/REC-SVG-20010904/DTD/svg10.dtd">
<svg version="1.0" xmlns="http://www.w3.org/2000/svg"
 width="444.000000pt" height="444.000000pt" viewBox="0 0 444.000000 444.000000"
 preserveAspectRatio="xMidYMid meet">
<metadata>
Created by potrace 1.11, written by Peter Selinger 2001-2013
</metadata>
<g transform="translate(0.000000,444.000000) scale(0.100000,-0.100000)"
fill="#000000" stroke="none">
<path d="M3677 3043 c-3 -2 -375 -19 -627 -28 -69 -2 -186 -7 -260 -10 -74 -4
-175 -8 -225 -10 -88 -4 -247 -11 -470 -20 -60 -3 -171 -7 -245 -10 -74 -3
-180 -7 -235 -10 -55 -3 -165 -7 -245 -10 -257 -10 -343 -14 -345 -17 -4 -4
-13 -61 -20 -131 -4 -32 -8 -67 -10 -77 -2 -10 -6 -47 -10 -82 -3 -35 -8 -74
-10 -88 -5 -35 -13 -96 -20 -160 -4 -30 -8 -67 -10 -81 -5 -25 -7 -45 -19
-144 -4 -27 -8 -66 -11 -85 -4 -30 -12 -106 -18 -175 -2 -17 4 -20 33 -19 19
1 91 5 160 8 69 3 184 8 255 11 72 3 173 7 225 10 52 3 151 7 220 10 69 3 170
7 225 10 55 3 159 7 230 10 72 3 180 7 240 10 61 3 164 8 230 10 66 3 170 7
230 10 205 10 300 14 440 20 237 10 327 15 335 20 8 5 18 67 35 229 3 21 7 55
10 75 8 60 16 124 20 161 2 19 6 55 10 80 3 25 8 65 10 90 3 25 7 59 10 75 2
17 7 53 10 80 4 28 8 61 10 74 3 14 7 52 11 85 3 34 6 66 7 71 2 8 -168 16
-176 8z"/>
<path d="M855 2943 c1 -10 -2 -23 -7 -30 -7 -9 -4 -9 16 0 28 13 36 30 9 20
-10 -4 -14 -2 -9 5 3 6 2 13 -3 16 -5 4 -8 -2 -6 -11z"/>
<path d="M905 2920 c3 -5 8 -10 11 -10 2 0 4 5 4 10 0 6 -5 10 -11 10 -5 0 -7
-4 -4 -10z"/>
<path d="M849 2872 c-13 -15 -12 -16 3 -4 13 10 17 10 21 0 4 -9 6 -9 6 -1 2
20 -16 24 -30 5z"/>
<path d="M905 2869 c4 -10 2 -20 -4 -24 -15 -8 -14 -25 1 -25 6 0 8 3 5 7 -4
3 -2 12 5 20 8 10 8 17 -1 26 -10 9 -11 8 -6 -4z"/>
<path d="M844 2831 c20 -22 26 -25 26 -13 0 4 -10 13 -22 21 -23 14 -23 14 -4
-8z"/>
<path d="M825 2780 c-3 -11 -4 -24 -1 -29 7 -10 31 -9 42 2 4 3 -3 5 -15 2
-13 -2 -21 1 -21 11 0 8 5 14 10 14 6 0 10 5 10 10 0 18 -18 11 -25 -10z"/>
<path d="M868 2788 c6 -6 18 -8 28 -6 14 3 12 5 -9 10 -19 3 -25 2 -19 -4z"/>
<path d="M779 2662 c-3 -20 -2 -29 4 -23 5 5 7 19 5 32 -3 20 -5 19 -9 -9z"/>
<path d="M830 2661 c0 -5 7 -12 16 -15 14 -5 15 -4 4 9 -14 17 -20 19 -20 6z"/>
<path d="M774 2573 c1 -7 6 -16 11 -20 4 -4 5 -2 1 5 -4 7 -1 12 8 12 9 0 16
4 16 8 0 4 -8 8 -19 8 -10 0 -18 -6 -17 -13z"/>
<path d="M848 2563 c6 -2 18 -2 25 0 6 3 1 5 -13 5 -14 0 -19 -2 -12 -5z"/>
<path d="M810 2483 c0 -6 -8 -14 -17 -16 -10 -3 -1 -4 19 -3 21 1 40 5 44 8 3
4 -2 5 -13 4 -10 -2 -21 2 -25 8 -6 8 -8 8 -8 -1z"/>
<path d="M817 2443 c20 -7 -12 -34 -31 -27 -9 3 -16 1 -16 -6 0 -6 5 -8 10 -5
6 3 10 2 10 -2 0 -5 12 -9 28 -10 20 -1 23 0 9 6 -17 6 -17 8 -3 20 8 7 21 10
28 6 7 -4 4 1 -6 9 -11 9 -25 16 -30 15 -6 0 -5 -3 1 -6z"/>
<path d="M775 2362 c-3 -3 -5 -10 -5 -16 0 -6 5 -4 10 4 8 13 10 13 10 -2 0
-26 15 -29 16 -4 2 20 -18 31 -31 18z"/>
<path d="M820 2360 c0 -5 5 -10 11 -10 5 0 7 5 4 10 -3 6 -8 10 -11 10 -2 0
-4 -4 -4 -10z"/>
<path d="M821 2317 c-13 -21 -12 -21 5 -5 10 10 16 20 13 22 -3 3 -11 -5 -18
-17z"/>
<path d="M725 2290 c3 -5 11 -10 16 -10 6 0 7 5 4 10 -3 6 -11 10 -16 10 -6 0
-7 -4 -4 -10z"/>
<path d="M764 2273 c1 -30 16 -37 16 -8 0 9 6 12 15 9 8 -4 15 -1 15 6 0 7 -8
10 -20 7 -10 -3 -21 0 -23 7 -2 6 -4 -3 -3 -21z"/>
<path d="M702 2225 c3 -3 20 -8 39 -10 19 -3 45 -7 58 -10 13 -2 21 -1 17 2
-8 8 -27 12 -80 18 -21 3 -37 2 -34 0z"/>
<path d="M243 1830 c-101 -21 -182 -79 -223 -160 -16 -32 -20 -59 -20 -151 l0
-112 36 -33 c33 -32 40 -34 102 -34 50 0 76 5 100 20 19 12 31 17 28 11 -13
-21 24 -32 101 -29 72 3 78 5 81 25 l3 23 30 -23 c27 -19 44 -22 145 -24 80
-1 124 2 148 12 30 13 35 13 40 -1 5 -12 22 -14 93 -12 l88 3 12 65 c32 166
45 211 70 240 13 17 29 27 35 24 9 -6 7 -55 -7 -124 -18 -90 -29 -158 -30
-180 0 -24 2 -25 84 -28 46 -2 88 1 92 5 4 4 19 66 33 137 26 126 47 180 73
191 28 10 28 -29 3 -155 -14 -66 -21 -116 -24 -150 -1 -25 0 -25 82 -28 77 -3
113 6 110 26 0 4 0 19 1 33 1 26 2 26 45 -17 l43 -44 117 0 c126 0 154 8 210
59 23 21 30 23 34 11 3 -8 18 -27 33 -42 25 -25 34 -28 97 -28 56 0 76 4 104
24 l34 23 28 -23 c23 -20 38 -24 94 -24 41 0 79 6 96 15 27 14 31 14 38 0 8
-12 35 -15 162 -15 111 0 156 3 164 13 6 6 13 30 16 53 4 22 10 55 15 72 5 17
7 33 3 36 -3 3 0 6 6 6 15 0 29 -27 37 -75 4 -22 11 -55 17 -72 l10 -33 89 0
c71 0 91 3 96 15 5 14 8 14 29 0 32 -21 233 -21 274 0 25 13 29 13 34 0 4 -11
21 -15 58 -15 74 0 132 37 181 112 20 32 68 204 59 212 -3 3 5 6 18 6 24 0 24
-6 5 -100 -2 -13 -7 -41 -10 -61 -3 -21 -12 -60 -19 -88 -19 -75 -11 -83 94
-79 l85 3 12 35 c7 19 12 30 12 23 1 -7 12 -24 26 -38 24 -23 33 -25 112 -25
66 0 91 4 105 17 17 15 18 15 18 0 0 -15 13 -17 90 -17 79 0 90 2 91 18 2 73
11 152 29 237 11 55 20 125 20 156 0 56 0 57 -32 63 -86 17 -176 18 -236 2
-59 -15 -133 -53 -147 -76 -14 -23 -22 -8 -15 26 15 66 19 65 -204 62 l-201
-3 -13 -50 c-7 -27 -13 -60 -14 -72 -1 -13 -4 -23 -5 -23 -1 0 -12 18 -23 39
-47 94 -163 133 -283 97 -40 -12 -48 -12 -58 0 -15 19 -195 20 -212 2 -7 -7
-30 -37 -51 -65 -39 -55 -51 -65 -42 -35 3 9 7 30 10 46 3 16 8 31 10 34 3 3
1 11 -5 19 -14 16 -344 19 -354 3 -3 -5 -8 -20 -10 -32 -3 -13 -9 -45 -15 -73
-5 -27 -12 -67 -16 -88 -7 -51 -28 -99 -52 -120 -19 -17 -21 -17 -30 -2 -5 11
-6 35 0 64 39 202 45 240 35 250 -21 21 -200 10 -186 -10 1 -2 -3 -33 -11 -69
-7 -36 -14 -74 -16 -85 -13 -80 -42 -148 -69 -159 -28 -10 -31 21 -11 110 2
12 7 39 10 60 3 22 11 60 17 87 17 73 13 77 -86 77 -93 0 -94 -1 -109 -71 l-6
-26 -39 37 c-88 84 -260 75 -358 -17 l-32 -30 -11 32 c-19 58 -52 79 -123 79
-53 1 -70 -4 -105 -26 -32 -22 -43 -25 -49 -14 -4 7 -23 21 -42 31 -41 21
-119 15 -159 -11 -23 -15 -26 -15 -34 0 -12 21 -149 23 -167 3 -6 -8 -7 -17
-3 -22 8 -9 5 -7 -53 20 -30 15 -62 19 -125 19 -89 0 -129 -13 -177 -57 l-23
-20 0 26 c0 22 -7 28 -37 37 -52 15 -179 21 -230 10z m456 -156 c-29 -16 -39
-17 -39 -4 0 13 41 30 54 22 5 -2 -2 -11 -15 -18z m-414 -36 c-12 -84 -42
-138 -75 -138 -24 0 -30 31 -18 80 12 45 57 100 83 100 14 0 16 -7 10 -42z
m1533 20 c30 -30 -5 -159 -48 -173 -47 -15 -64 40 -36 119 20 57 57 81 84 54z
m1545 -9 c24 -39 -23 -169 -62 -169 -31 0 -44 25 -38 74 12 94 67 147 100 95z
m862 -38 c-18 -77 -34 -109 -56 -116 -27 -9 -39 2 -39 35 0 46 28 104 58 123
47 29 52 23 37 -42z m-1157 8 c-8 -22 -13 -27 -19 -18 -5 8 -2 20 8 31 22 25
24 23 11 -13z m-2371 -105 c7 -20 -13 -34 -49 -34 -21 0 -28 5 -28 18 0 26 9
32 42 32 17 0 31 -6 35 -16z"/>
</g>
</svg>
