<?xml version="1.0" standalone="no"?>
<!DOCTYPE svg PUBLIC "-//W3C//DTD SVG 20010904//EN"
 "http://www.w3.org/TR/2001/REC-SVG-20010904/DTD/svg10.dtd">
<svg version="1.0" xmlns="http://www.w3.org/2000/svg"
 width="500.000000pt" height="500.000000pt" viewBox="0 0 500.000000 500.000000"
 preserveAspectRatio="xMidYMid meet">
<metadata>
Created by potrace 1.11, written by Peter Selinger 2001-2013
</metadata>
<g transform="translate(0.000000,500.000000) scale(0.100000,-0.100000)"
fill="#000000" stroke="none">
<path d="M3271 4094 c-17 -27 -31 -54 -31 -61 0 -6 -4 -13 -9 -15 -9 -3 -272
-533 -342 -688 -18 -41 -36 -77 -39 -80 -4 -3 -14 -25 -24 -49 -9 -24 -24 -54
-32 -65 -8 -11 -14 -28 -14 -38 0 -10 -4 -18 -10 -18 -5 0 -10 -4 -10 -9 0 -6
-28 -67 -62 -138 -34 -70 -62 -130 -62 -133 -1 -3 -11 -22 -23 -43 -24 -40
-46 -52 -114 -62 -75 -11 -102 -16 -165 -30 -34 -8 -73 -16 -85 -19 -19 -4
-250 -62 -319 -81 -80 -21 -250 -94 -250 -107 0 -5 4 -7 8 -4 4 2 41 7 82 11
41 3 98 9 125 11 124 12 154 15 210 19 33 2 60 5 60 5 0 4 142 11 235 12 125
0 362 -14 591 -35 23 -3 30 3 44 37 34 79 236 481 254 505 l18 23 45 -93 c92
-188 206 -428 268 -564 18 -38 37 -73 44 -77 6 -4 45 -22 86 -39 244 -101 481
-254 643 -414 31 -31 57 -54 57 -51 0 26 -394 833 -413 847 -5 3 -7 8 -6 10 2
2 -41 94 -95 204 -54 110 -123 252 -154 315 -105 220 -409 835 -445 899 l-35
64 -31 -49z"/>
<path d="M2274 2441 c-2 -2 -36 -6 -76 -8 -85 -4 -173 -11 -173 -13 0 -1 -16
-3 -35 -5 -177 -19 -226 -25 -300 -40 -14 -2 -43 -7 -65 -10 -51 -7 -84 -13
-115 -20 -14 -2 -50 -10 -80 -16 -113 -23 -229 -56 -295 -84 -25 -11 -79 -23
-235 -51 -43 -8 -242 -63 -320 -88 -172 -55 -361 -142 -469 -215 -65 -45 -93
-74 -39 -42 51 31 181 93 196 94 6 0 12 5 12 10 0 6 3 8 6 5 3 -4 29 4 57 16
50 22 224 76 297 92 19 4 40 9 45 10 41 10 156 33 185 38 19 3 44 7 55 10 11
2 43 7 70 10 28 4 61 8 75 11 28 5 98 11 211 20 111 9 409 13 413 6 3 -4 -19
-7 -47 -7 -71 -1 -237 -14 -322 -25 -38 -5 -88 -12 -110 -15 -113 -15 -358
-73 -363 -86 -2 -4 -8 -6 -12 -3 -24 15 -361 -112 -414 -155 -10 -8 -21 -14
-25 -14 -3 1 -26 -9 -51 -21 -31 -16 -38 -23 -22 -22 12 1 22 6 22 11 0 5 2 7
6 4 3 -3 33 8 67 24 34 17 67 31 72 32 6 1 16 5 23 9 6 5 12 5 12 0 0 -4 4 -3
8 3 15 21 389 123 468 127 18 1 34 5 34 8 0 3 6 6 13 6 6 0 50 6 97 13 47 7
101 14 120 15 19 2 73 7 120 12 108 10 486 10 605 0 126 -10 199 -18 203 -22
2 -2 -79 -3 -180 -3 -226 -1 -335 -8 -513 -37 -168 -27 -493 -114 -479 -127 4
-4 14 -3 23 1 22 12 263 63 268 57 3 -3 15 -1 27 4 80 30 651 61 684 37 8 -6
12 -5 12 2 0 7 4 10 8 7 4 -2 41 -7 82 -11 41 -4 76 -8 78 -9 4 -4 -96 -198
-109 -211 -5 -5 -24 -11 -42 -12 -18 -1 -57 -4 -87 -8 -30 -4 -73 -8 -95 -10
-22 -2 -40 -4 -40 -5 0 -2 -36 -9 -79 -15 -21 -3 -41 -7 -45 -10 -4 -2 -19 -6
-33 -9 -48 -8 -183 -48 -260 -77 -151 -55 -278 -128 -368 -209 l-45 -41 72 45
c195 122 417 195 725 240 114 17 260 27 256 18 -7 -16 -319 -655 -368 -754
l-28 -58 283 0 c239 0 284 2 295 15 7 8 10 15 7 15 -3 0 11 35 32 78 21 42 53
109 71 147 18 39 64 135 102 215 38 80 86 180 105 222 l36 77 36 -5 c60 -10
191 -54 278 -94 176 -82 353 -220 475 -371 47 -59 128 -177 128 -187 0 -4 6
-14 13 -21 6 -6 12 -15 12 -19 0 -4 9 -22 20 -39 l19 -33 138 0 c90 0 138 4
138 11 0 12 -63 107 -143 214 -59 79 -196 221 -250 260 -16 11 -38 29 -50 39
-150 130 -550 307 -744 328 -7 1 -13 6 -13 12 0 21 75 163 85 161 186 -41 478
-166 677 -291 145 -92 350 -276 445 -402 32 -42 60 -79 63 -82 21 -21 120
-217 120 -238 0 -12 62 -13 408 -8 224 3 430 5 459 6 l52 0 -76 147 c-42 82
-81 158 -87 170 -6 13 -14 23 -18 23 -5 0 -8 6 -8 14 0 7 -7 19 -15 26 -9 7
-23 28 -31 46 -9 19 -20 34 -25 34 -5 0 -9 6 -9 14 0 8 -3 16 -8 18 -4 2 -34
39 -67 83 -129 172 -400 440 -535 528 -173 112 -421 241 -535 277 -22 7 -44
15 -50 19 -5 3 -28 11 -50 17 -160 44 -242 66 -287 75 -29 6 -62 12 -73 14
-11 3 -38 7 -60 10 -71 10 -99 15 -132 20 -40 6 -171 17 -244 19 -30 2 -61 6
-67 10 -7 4 -12 2 -12 -4 0 -7 -6 -8 -17 -3 -22 11 -194 10 -211 0 -6 -5 -12
-5 -12 0 0 8 -48 12 -56 4z"/>
</g>
</svg>
